<svg xmlns="http://www.w3.org/2000/svg" viewBox="0 0 640 400" fill="none">
  <rect width="640" height="400" rx="16" fill="#f5f5f0"/>
  <rect x="40" y="36" width="560" height="328" rx="18" fill="#1e1e1e"/>
  <circle cx="68" cy="60" r="4" fill="#ffffff" opacity="0.2"/>
  <circle cx="84" cy="60" r="4" fill="#ffffff" opacity="0.2"/>
  <circle cx="100" cy="60" r="4" fill="#ffffff" opacity="0.2"/>
  <rect x="64" y="92" width="14" height="14" rx="3" fill="#ff6b35"/>
  <rect x="90" y="96" width="80" height="7" rx="3" fill="#3a3a3a"/>
  <rect x="64" y="124" width="14" height="14" rx="3" fill="#ff6b35" opacity="0.7"/>
  <rect x="90" y="128" width="120" height="7" rx="3" fill="#3a3a3a"/>
  <rect x="64" y="156" width="14" height="14" rx="3" fill="#ff6b35" opacity="0.45"/>
  <rect x="90" y="160" width="100" height="7" rx="3" fill="#3a3a3a"/>
  <rect x="64" y="200" width="480" height="1" fill="#2a2a2a"/>
  <rect x="64" y="228" width="200" height="8" rx="4" fill="#3a3a3a"/>
  <rect x="64" y="254" width="160" height="8" rx="4" fill="#3a3a3a"/>
  <rect x="64" y="292" width="128" height="32" rx="16" fill="#ffffff"/>
  <text x="320" y="372" text-anchor="middle" fill="#8a8a8a" font-family="system-ui" font-size="13">Code Flow</text>
</svg>
